<?xml version="1.0" encoding="UTF-8" standalone="no"?>
<!-- Copy icon by Arthur Shlain from Usefulicons.com -->

<svg
   xml:space="preserve"
   version="1.1"
   x="0px"
   y="0px"
   viewBox="0 0 16 16"
   width="16"
   height="16"
   id="svg1"
   sodipodi:docname="copy-ffffff.svg"
   inkscape:version="1.4 (86a8ad7, 2024-10-11)"
   xmlns:inkscape="http://www.inkscape.org/namespaces/inkscape"
   xmlns:sodipodi="http://sodipodi.sourceforge.net/DTD/sodipodi-0.dtd"
   xmlns="http://www.w3.org/2000/svg"
   xmlns:svg="http://www.w3.org/2000/svg"><defs
     id="defs1" /><sodipodi:namedview
     id="namedview1"
     pagecolor="#505050"
     bordercolor="#eeeeee"
     borderopacity="1"
     inkscape:showpageshadow="0"
     inkscape:pageopacity="0"
     inkscape:pagecheckerboard="0"
     inkscape:deskcolor="#505050"
     inkscape:zoom="14.680884"
     inkscape:cx="20.605027"
     inkscape:cy="12.022437"
     inkscape:window-width="1803"
     inkscape:window-height="1046"
     inkscape:window-x="106"
     inkscape:window-y="-11"
     inkscape:window-maximized="1"
     inkscape:current-layer="svg1" /><g
     style="fill:#ffffff"
     id="g1"
     transform="matrix(0.17769586,0,0,0.17778058,-0.88847928,-0.88924154)"><path
       d="M 79.083,6.985 C 76.426,4.349 73.755,5.064 70.155,5.167 58.079,5.51 45.789,5.854 33.714,6.197 32.352,6.236 31,7.305 31,8.697 c 0,2.285 0,4.558 0,6.842 C 23.224,15.758 15.427,15.978 7.714,16.197 6.352,16.236 5,17.305 5,18.697 5,42.899 5,67 5,91 5,93.499 6.952,94.437 8.417,93.813 27.67,94.208 47.083,94.604 66.334,95 67.696,95.028 69,93.842 69,92.5 69,89.841 69,87.181 69,84.522 76.79,84.681 84.576,84.841 92.334,85 93.696,85.028 95,83.842 95,82.5 95,71.516 95,60.532 95,49.548 95,42.755 95,35.963 95,29.17 95,26.105 95.479,23.161 93.182,20.882 88.514,16.25 83.751,11.617 79.083,6.985 Z m -3.614,3.564 c 4.229,4.196 8.611,8.392 12.869,12.588 -4.366,0.081 -8.732,0.182 -13.098,0.251 0.405,-0.006 0.26,-10.211 0.229,-12.839 z M 64,40.453 c 0,6.695 0,13.39 0,20.085 0,9.805 0,19.61 0,29.415 -17.977,-0.369 -36.023,-0.739 -54,-1.108 0,-22.482 0,-45.053 0,-67.713 10.565,-0.3 21.196,-0.601 31.75,-0.901 0.898,-0.026 1.807,-0.051 2.715,-0.077 0,2.982 10e-4,6.879 10e-4,10.335 0,2.648 -0.235,4.929 1.686,6.938 1.618,1.692 5.383,0.886 7.366,0.855 3.494,-0.055 6.989,-0.116 10.483,-0.172 C 64,38.89 64,39.672 64,40.453 Z M 49.469,20.549 c 4.229,4.196 8.611,8.392 12.869,12.588 -4.366,0.081 -8.732,0.182 -13.098,0.251 0.405,-0.006 0.26,-10.211 0.229,-12.839 z M 90,30.453 c 0,6.695 0,13.39 0,20.085 0,9.805 0,19.61 0,29.415 -6.991,-0.144 -13.995,-0.287 -21,-0.431 0,-6.658 0,-13.315 0,-19.973 0,-6.793 0,-13.585 0,-20.378 0,-3.065 0.479,-6.009 -1.818,-8.288 -4.668,-4.633 -9.432,-9.265 -14.1,-13.898 -2.657,-2.636 -5.328,-1.921 -8.928,-1.818 -2.708,0.077 -5.43,0.154 -8.155,0.231 0,-1.424 0,-2.841 0,-4.266 10.565,-0.3 21.196,-0.601 31.75,-0.901 0.898,-0.026 1.807,-0.051 2.715,-0.077 0,2.982 0.001,6.879 0.001,10.335 0,2.648 -0.235,4.929 1.686,6.938 1.618,1.692 5.383,0.886 7.366,0.855 3.494,-0.055 6.989,-0.116 10.483,-0.172 0,0.78 0,1.562 0,2.343 z"
       stroke="none"
       id="path1" /></g></svg>
